<?xml version="1.0" encoding="UTF-8"?>
<!DOCTYPE svg PUBLIC "-//W3C//DTD SVG 1.1//EN" "http://www.w3.org/Graphics/SVG/1.1/DTD/svg11.dtd">
<svg version="1.1" xmlns="http://www.w3.org/2000/svg" xmlns:xlink="http://www.w3.org/1999/xlink" x="0" y="0" width="46" height="46" viewBox="0, 0, 46, 46">
  <g id="Google-Button">
    <g id="logo_googleg_48dp">
      <path d="M42.906,23.462 C42.906,22.021 42.777,20.636 42.537,19.307 L23.406,19.307 L23.406,27.164 L34.338,27.164 C33.867,29.703 32.436,31.854 30.285,33.295 L30.285,38.391 L36.849,38.391 C40.69,34.855 42.906,29.648 42.906,23.462 L42.906,23.462 z" fill="#4285F4" id="Shape"/>
      <path d="M23.406,43.312 C28.891,43.312 33.489,41.494 36.849,38.391 L30.285,33.295 C28.466,34.513 26.139,35.234 23.406,35.234 C18.116,35.234 13.638,31.661 12.04,26.859 L5.254,26.859 L5.254,32.122 C8.597,38.761 15.466,43.312 23.406,43.312 L23.406,43.312 z" fill="#34A853" id="Shape"/>
      <path d="M12.04,26.859 C11.634,25.641 11.403,24.339 11.403,23 C11.403,21.661 11.634,20.359 12.04,19.141 L12.04,13.878 L5.254,13.878 C3.879,16.62 3.094,19.722 3.094,23 C3.094,26.278 3.879,29.38 5.254,32.122 L12.04,26.859 L12.04,26.859 z" fill="#FBBC05" id="Shape"/>
      <path d="M23.406,10.766 C26.388,10.766 29.066,11.791 31.171,13.804 L36.997,7.978 C33.479,4.7 28.881,2.687 23.406,2.687 C15.466,2.687 8.597,7.239 5.254,13.878 L12.04,19.141 C13.638,14.339 18.116,10.766 23.406,10.766 L23.406,10.766 z" fill="#EA4335" id="Shape"/>
    </g>
  </g>
</svg>
