<?xml version="1.0" encoding="UTF-8"?>
<!DOCTYPE svg PUBLIC "-//W3C//DTD SVG 1.1//EN" "http://www.w3.org/Graphics/SVG/1.1/DTD/svg11.dtd">
<svg version="1.1" xmlns="http://www.w3.org/2000/svg" xmlns:xlink="http://www.w3.org/1999/xlink" x="0" y="0" width="500" height="500" viewBox="0, 0, 500, 500">
  <g id="Layer_1">
    <path d="M104.655,348.029 C116.375,368.071 112.531,371.036 96.114,354.62 L20.135,278.642 C3.718,262.225 3.718,235.361 20.135,218.944 L96.114,142.965 C112.531,126.548 116.926,129.826 105.882,150.246 C105.882,150.246 79.912,198.265 79.912,245.595 C79.913,305.716 104.655,348.029 104.655,348.029 z M370.122,342.439 C370.122,342.439 366.738,306.101 319.076,289.085 C239.641,260.728 144.853,250.237 144.853,250.237 C121.777,247.683 121.691,242.838 144.662,239.469 C144.662,239.469 240.252,225.45 319.715,196.346 C367.264,178.932 369.716,155.107 369.716,155.107 C372.094,132.013 387.471,126.548 403.887,142.965 L479.865,218.944 C496.282,235.361 496.282,262.225 479.865,278.642 L403.887,354.62 C387.471,371.036 372.277,365.555 370.122,342.439 z M150.841,118.495 C150.841,118.495 193.154,93.753 253.275,93.753 C300.605,93.753 348.623,119.723 348.623,119.723 C369.044,130.767 372.321,126.372 355.904,109.955 L279.926,33.975 C263.509,17.558 236.645,17.558 220.228,33.975 L144.25,109.955 C127.833,126.372 130.798,130.215 150.841,118.495 z M253.277,406.247 C193.154,406.247 150.841,381.505 150.842,381.505 C130.8,369.785 127.835,373.628 144.252,390.045 L220.229,466.025 C236.646,482.442 263.51,482.442 279.927,466.025 L355.906,390.045 C372.323,373.628 369.047,369.233 348.625,380.277 C348.625,380.277 300.606,406.247 253.277,406.247 z" fill="#039BE5"/>
  </g>
</svg>
